<svg width="60" height="60" viewBox="0 0 60 60" fill="none" xmlns="http://www.w3.org/2000/svg">
<g clip-path="url(#clip0_1_634)">
<path d="M55.0939 45.2461C57.3971 41.114 58.7112 36.3552 58.7112 31.2888C58.7112 15.432 45.8568 2.57764 30 2.57764C14.1432 2.57764 1.28883 15.432 1.28883 31.2888C1.28883 36.3552 2.60285 41.114 4.90605 45.2461H55.0939Z" fill="#FF4155"/>
<path d="M38.6838 36.9153C38.6843 36.915 38.6846 36.9145 38.6846 36.9145C38.6155 36.895 38.5451 36.8772 38.4751 36.8587C38.4519 36.8526 38.4289 36.8459 38.4057 36.8398L38.4053 36.8402C38.1694 36.7782 37.9323 36.7183 37.6923 36.6629C36.5026 35.4732 36.201 33.2177 36.1467 31.6396C35.5259 32.3628 34.8743 32.9677 34.2517 33.4511C33.0386 34.3932 31.5417 34.9048 30 34.9048C28.4583 34.9048 26.9613 34.3932 25.7483 33.4511C25.1257 32.9677 24.474 32.3627 23.8532 31.6396C23.7988 33.2177 23.4973 35.4732 22.3075 36.6629C22.0642 36.719 21.8237 36.78 21.5845 36.8428C21.5845 36.8428 21.5843 36.8425 21.5841 36.8424C21.5619 36.8482 21.54 36.8545 21.5178 36.8603C21.4471 36.8791 21.3758 36.8971 21.3053 36.9165C21.3053 36.9165 21.3062 36.9173 21.3066 36.9177C20.2103 37.2179 19.1523 37.585 18.1184 38.0185V40.8152C20.0457 43.4497 22.6246 45.0922 24.1007 45.7126C24.7641 45.9914 25.4712 46.1327 26.2025 46.1327H28.2749L28.7817 46.3085H31.218L31.7249 46.1327H33.7972C34.5285 46.1327 35.2356 45.9912 35.899 45.7126C37.3668 45.0956 39.925 43.4683 41.8488 40.8597V38.0052C40.8224 37.5767 39.772 37.2131 38.6838 36.9153Z" fill="#FFAA7B"/>
<path d="M25.7483 33.4512C25.1257 32.9677 24.474 32.3628 23.8532 31.6396C23.7988 33.2177 23.4973 35.4732 22.3076 36.6629C22.0642 36.719 21.8238 36.78 21.5846 36.8429C21.5846 36.8429 21.5844 36.8427 21.5842 36.8425C21.562 36.8484 21.5401 36.8546 21.518 36.8606C21.4472 36.8793 21.3759 36.8974 21.3054 36.9167C21.3054 36.9167 21.3063 36.9175 21.3068 36.9179C20.8789 37.0351 20.4585 37.1655 20.0414 37.3031C21.203 40.0766 23.6412 44.8528 26.2207 43.5298C29.8007 41.6939 30 34.9048 30 34.9048C28.4583 34.9048 26.9613 34.3932 25.7483 33.4512Z" fill="#FC9460"/>
<path d="M40.299 42.5491C38.7034 44.0236 36.9966 44.9001 35.8991 45.3613C35.2357 45.6401 34.5286 45.7815 33.7973 45.7815H31.725L31.2182 45.9572C30.3461 45.9572 29.6539 45.9572 28.7818 45.9572L28.275 45.7815H26.2027C25.4714 45.7815 24.7643 45.64 24.1008 45.3613C23.8649 45.2622 23.5996 45.1426 23.3145 45.0032V53.7248C23.3145 53.7248 21.0793 55.9324 22.7255 59.0685C25.0489 59.6753 27.4863 60 30 60C36.9732 60 43.3652 57.5133 48.3394 53.3792C48.3394 53.2359 48.3394 53.0937 48.3394 52.9547C48.3394 48.5889 43.1068 44.4538 40.299 42.5491Z" fill="#FFC839"/>
<path d="M23.5488 53.7246V45.1153C22.4786 44.6141 21.0553 43.7983 19.7089 42.5562C16.9069 44.456 11.6719 48.589 11.6719 52.9529V53.3886C14.9204 56.0858 18.7733 58.0801 22.9972 59.139C21.2798 55.9654 23.5488 53.7246 23.5488 53.7246Z" fill="#FFB332"/>
<path d="M55.0939 45.2462C55.0689 45.1978 55.0444 45.1487 55.0191 45.1008C54.0814 43.3372 52.5068 41.9971 50.628 41.3186L42.6793 38.448C42.8257 38.7432 42.9253 39.18 42.6421 39.661C41.9011 40.92 40.9923 41.9425 40.0582 42.7661C42.6834 44.5159 48.0013 48.5921 48.0013 52.9025V53.6545C50.8718 51.3412 53.2875 48.4871 55.0939 45.2462Z" fill="#FFDD40"/>
<path d="M17.3578 39.661C17.0746 39.18 17.1743 38.7432 17.3205 38.448L9.37183 41.3186C7.4932 41.9971 5.91855 43.3372 4.98093 45.1008C4.9555 45.1487 4.93101 45.1978 4.90605 45.2462C6.7125 48.487 9.12808 51.3412 11.9987 53.6545C11.9987 53.3975 11.9987 53.146 11.9987 52.9025C11.9987 48.5921 17.3164 44.516 19.9417 42.7661C19.0076 41.9425 18.0989 40.92 17.3578 39.661Z" fill="#FFC839"/>
<path d="M43.4932 34.3631C42.6247 32.3367 39.8079 31.1522 36.0995 29.9106L35.8451 31.9414C35.8451 31.9414 38.1854 41.1767 31.2182 45.9572H34.607C35.5562 45.9572 36.495 45.7577 37.3597 45.3659C38.4468 44.8733 39.9711 44.0725 41.3298 42.9622C43.8693 40.8868 44.7852 37.3776 43.4932 34.3631Z" fill="#FEE77F"/>
<path d="M24.42 39.9936C23.1294 39.6615 19.8204 39.2282 18.9389 43.1757C20.2266 44.1755 21.6244 44.9053 22.6403 45.3657C23.5049 45.7576 24.4437 45.957 25.3929 45.957H28.7817C26.3829 44.311 25.0876 42.137 24.42 39.9936Z" fill="#FEE77F"/>
<path d="M24.1549 31.9414L23.9005 29.9106C20.1921 31.1522 17.3753 32.3365 16.5068 34.3631C15.2148 37.3776 16.1307 40.8868 18.6703 42.9621C18.8224 43.0864 18.9768 43.2062 19.1321 43.3226C20.0123 38.6106 24.5487 40.3833 24.5487 40.3833L24.5488 40.3825C23.0846 36.168 24.1549 31.9414 24.1549 31.9414Z" fill="#FFDD40"/>
<path d="M23.5488 53.7247C22.9989 53.7247 22.549 53.2749 22.549 52.7249V44.5121C22.549 43.9621 22.9989 43.5122 23.5488 43.5122C24.0988 43.5122 24.5487 43.9621 24.5487 44.5121V52.7249C24.5487 53.2749 24.0988 53.7247 23.5488 53.7247Z" fill="#DEEEFF"/>
<path d="M36.4186 53.7247C35.8686 53.7247 35.4187 53.2749 35.4187 52.7249V44.5121C35.4187 43.9621 35.8686 43.5122 36.4186 43.5122C36.9686 43.5122 37.4184 43.9621 37.4184 44.5121V52.7249C37.4184 53.2749 36.9686 53.7247 36.4186 53.7247Z" fill="#DEEEFF"/>
<path d="M48.2344 9.11084C46.1518 10.5341 44.5758 12.7134 45.1246 15.9897C46.5625 24.5741 39.9393 28.9536 50.2905 33.556C53.9708 35.1924 56.2888 37.1068 57.7322 38.7436C58.3702 36.3663 58.7112 33.8674 58.7112 31.2887C58.7112 22.3562 54.6316 14.3767 48.2344 9.11084Z" fill="#FF7186"/>
<path d="M11.7656 9.11084C13.8482 10.5341 15.4242 12.7134 14.8754 15.9897C13.4375 24.5741 20.0607 28.9536 9.70945 33.556C6.02918 35.1924 3.71121 37.1068 2.26781 38.7436C1.62984 36.3663 1.28883 33.8674 1.28883 31.2887C1.28883 22.3562 5.36836 14.3767 11.7656 9.11084Z" fill="#FF7186"/>
<path d="M41.1836 18.5252C41.9457 15.417 42.5682 10.7598 40.9202 6.88461C37.7336 -0.608828 29.0609 -0.146875 26.7626 0.117031C26.5213 0.144688 26.4002 0.419961 26.5375 0.620234C27.9151 2.63141 22.5178 0.809258 19.5843 6.96277C17.725 10.8627 18.1922 15.4543 18.8719 18.5253L41.1836 18.5252Z" fill="#945230"/>
<path d="M29.8741 8.25631C29.8741 8.25631 29.0102 6.26952 31.198 4.62889C33.3829 2.99038 30.1259 0.0465083 30.1174 0.0388911C28.652 -0.0539214 27.4345 0.0398286 26.7626 0.117055C26.5213 0.144829 26.4002 0.419985 26.5375 0.620258C27.9151 2.63143 22.5178 0.809282 19.5843 6.9628C17.725 10.8628 18.1922 15.4544 18.8719 18.5253H23.972L25.592 17.8817L29.8741 8.25631Z" fill="#753616"/>
<path d="M41.6316 18.1313C41.1507 17.6907 40.0758 17.914 39.6616 18.1838C39.7523 18.7487 39.7575 19.3267 39.6792 19.8974L39.1905 23.4566C39.1905 23.7435 39.1815 24.025 39.1649 24.3016C40.3566 24.661 41.0657 23.5912 41.1654 22.857C41.2083 22.5409 41.2785 22.2294 41.3759 21.9255C41.6927 20.9357 42.8363 19.2353 41.6316 18.1313Z" fill="#FFAA7B"/>
<path d="M18.3684 18.1313C18.8493 17.6907 19.9242 17.914 20.3384 18.1838C20.2477 18.7487 20.2425 19.3267 20.3209 19.8974L20.8096 23.4566C20.8096 23.7435 20.8186 24.025 20.8352 24.3016C19.6436 24.661 18.9345 23.5912 18.8347 22.857C18.7918 22.5409 18.7216 22.2294 18.6243 21.9255C18.3073 20.9357 17.1638 19.2353 18.3684 18.1313Z" fill="#FC9460"/>
<path d="M39.0614 16.2326C38.5199 15.3831 38.6993 14.6892 38.7081 13.8768C38.7081 13.8768 39.1649 10.1365 34.5584 8.8084C33.2248 8.4239 31.3428 8.19398 29.4145 8.26793C28.0726 9.21398 27.1889 10.6022 27.1889 12.5693C27.1889 13.4734 27.3838 14.1799 26.8289 15.0966C26.2307 16.085 25.8825 17.5109 26.0802 19.0273L26.5781 22.8463C26.5781 28.3368 29.3611 32.0686 31.7284 34.0045C32.0652 34.2799 32.4246 34.5182 32.7995 34.723C33.3143 34.4964 33.8025 34.2069 34.2516 33.8582C36.5755 32.0535 39.3075 28.5748 39.3075 23.4568L39.7962 19.8976C39.9889 18.4952 39.6547 17.1635 39.0614 16.2326Z" fill="#FFC7AB"/>
<path d="M31.7525 33.7808C29.4286 31.8803 26.6965 28.2168 26.6965 22.8267L26.2077 19.0775C26.0136 17.589 26.3554 16.1892 26.9427 15.2188C27.4873 14.3189 27.296 13.6254 27.296 12.7377C27.296 10.6198 28.3376 9.18353 29.874 8.2561C25.78 8.31271 21.2918 9.70044 21.2918 13.8767C21.2918 14.7195 21.4832 15.3781 20.9385 16.2326C20.3511 17.154 20.0094 18.4832 20.2035 19.8967L20.6923 23.4567C20.6923 28.5748 23.4243 32.0535 25.7483 33.8581C26.9613 34.8 28.4583 35.3116 30 35.3116C31.0607 35.3116 32.1 35.0695 33.0403 34.6117C32.5859 34.386 32.1534 34.1087 31.7525 33.7808Z" fill="#FFAA7B"/>
<path d="M36.5795 27.5793C36.3077 25.9588 35.1386 24.3362 33.5776 23.9822L31.1918 23.2813C30.7771 23.1595 30.3619 23.3722 30.1949 23.7334C30.1644 23.7994 30.0722 23.7994 30.0416 23.7334C29.8745 23.3722 29.4593 23.1595 29.0446 23.2813L26.6587 23.9822C26.5996 23.9957 26.5412 24.0114 26.4832 24.0284H26.5055C26.2527 24.623 25.8158 26.0996 27.0594 27.2278C27.461 27.0228 27.8906 26.8659 28.3416 26.7663L28.7677 26.6722C29.3887 26.5351 29.8691 25.9288 30.0452 25.2827C30.0654 25.2086 30.1709 25.2086 30.1911 25.2827C30.3673 25.9288 30.8475 26.5351 31.4687 26.6722L31.8949 26.7663C33.1198 27.0367 34.193 27.7221 34.9521 28.6801C34.795 29.3788 34.3022 30.4405 32.775 30.9802C31.7503 31.3421 30.6321 30.6977 30.5009 29.6311C30.4992 29.6173 30.4976 29.6034 30.4961 29.5894C30.4745 29.3905 30.308 29.2376 30.1052 29.2376C29.9026 29.2376 29.736 29.3905 29.7144 29.5894C29.7129 29.6034 29.7112 29.6173 29.7096 29.6311C29.6391 30.2045 29.2821 30.6538 28.809 30.8925C28.6775 31.4137 28.503 32.5376 29.0471 33.6288C29.4407 34.4181 30.1315 35.0289 31.1045 35.4523C31.5974 35.3528 32.0803 35.1887 32.5384 34.9555C34.9261 33.7399 38.1006 31.628 39.116 26.1947C39.1995 25.748 39.2419 25.2937 39.2419 24.8392C38.8553 25.7931 38.0518 26.9406 36.5795 27.5793Z" fill="#945230"/>
<path d="M27.4446 34.9542C28.6774 35.5825 30.0866 35.7245 31.4005 35.3843C28.1898 34.1398 28.8534 31.3365 29.0282 30.7616C28.588 31.073 27.9981 31.179 27.4355 30.9803C26.0256 30.4821 25.4191 29.5386 25.1584 28.8469C25.6935 28.1149 26.4062 27.5286 27.2298 27.1444C25.8759 25.9737 26.5185 24.3872 26.7273 23.9622L26.6587 23.9823C25.067 24.3433 23.8819 26.0234 23.6411 27.6752C22.0125 27.0612 21.1648 25.8429 20.7582 24.8393V24.8398C20.7582 25.2936 20.8005 25.7473 20.8839 26.1934C21.8974 31.6256 25.0567 33.7374 27.4446 34.9542Z" fill="#753616"/>
</g>
<defs>
<clipPath id="clip0_1_634">
<rect width="60" height="60" fill="white"/>
</clipPath>
</defs>
</svg>
