<svg width="29" height="25" viewBox="0 0 29 25" fill="none" xmlns="http://www.w3.org/2000/svg">
<path d="M18.9616 13.6363H22.8655C23.3303 13.6363 23.7254 13.8019 24.0508 14.1334C24.3759 14.4649 24.5387 14.8673 24.5387 15.341V15.9089C24.5387 17.1637 24.1029 18.2349 23.2314 19.1228C22.36 20.0103 21.3084 20.4543 20.0769 20.4543H18.9616C18.6596 20.4543 18.3982 20.5668 18.1774 20.7916C17.9567 21.0166 17.8463 21.2828 17.8463 21.5906V23.8635C17.8463 24.1713 17.9567 24.4377 18.1774 24.6627C18.3982 24.8873 18.6595 25 18.9616 25H20.0769C21.2854 25 22.4383 24.7601 23.5364 24.2809C24.6343 23.8014 25.584 23.1533 26.3858 22.3364C27.1875 21.5199 27.8235 20.5523 28.2941 19.4335C28.7647 18.3149 29 17.14 29 15.9089V3.40922C29 2.46175 28.6748 1.65725 28.0242 0.994117C27.3735 0.331354 26.5832 0 25.6538 0H18.9612C18.0318 0 17.2418 0.331354 16.591 0.994117C15.9405 1.65725 15.6151 2.46175 15.6151 3.40922V10.2271C15.6151 11.1744 15.9405 11.9789 16.5915 12.6421C17.2419 13.3048 18.0322 13.6363 18.9616 13.6363Z" fill="black" fill-opacity="0.36"/>
<path d="M0.975332 12.6421C1.6258 13.3048 2.41587 13.6363 3.34548 13.6363H7.24931C7.71384 13.6363 8.10934 13.8019 8.43414 14.1334C8.75962 14.4649 8.92211 14.8673 8.92211 15.341V15.9089C8.92211 17.1637 8.48633 18.2349 7.61526 19.1228C6.74413 20.0103 5.69261 20.4543 4.46048 20.4543H3.34542C3.04332 20.4543 2.78182 20.5668 2.56115 20.7916C2.3406 21.0166 2.22981 21.2828 2.22981 21.5906V23.8635C2.22981 24.1713 2.34054 24.4377 2.56115 24.6627C2.78176 24.8873 3.04326 25 3.34542 25H4.46048C5.6696 25 6.82226 24.7601 7.92066 24.2809C9.01844 23.8014 9.96783 23.1533 10.7696 22.3364C11.5714 21.5199 12.2077 20.5523 12.6781 19.4335C13.1486 18.3149 13.3842 17.14 13.3842 15.9089V3.40922C13.3842 2.46175 13.0587 1.65725 12.4082 0.994117C11.7577 0.331354 10.9676 0 10.0381 0H3.34585C2.41623 0 1.62622 0.331354 0.975759 0.994117C0.324805 1.65725 8.60074e-09 2.46175 8.60074e-09 3.40922V10.2271C-6.10336e-05 11.1744 0.324805 11.9789 0.975332 12.6421Z" fill="black" fill-opacity="0.36"/>
</svg>
