<svg width="111" height="19" viewBox="0 0 111 19" fill="none" xmlns="http://www.w3.org/2000/svg">
<path d="M19.3119 7.10039L12.2948 6.63905L9.65208 0L7.00941 6.63905L0 7.10039L5.37616 11.6653L3.612 18.59L9.65208 14.7721L15.6922 18.59L13.928 11.6653L19.3119 7.10039Z" fill="#FFA740"/>
<path d="M42.1352 7.10039L35.1181 6.63905L32.4754 0L29.8327 6.63905L22.8233 7.10039L28.1995 11.6653L26.4353 18.59L32.4754 14.7721L38.5155 18.59L36.7513 11.6653L42.1352 7.10039Z" fill="#FFA740"/>
<path d="M87.7811 7.10039L80.764 6.63905L78.1213 0L75.4787 6.63905L68.4692 7.10039L73.8454 11.6653L72.0812 18.59L78.1213 14.7721L84.1614 18.59L82.3973 11.6653L87.7811 7.10039Z" fill="#FFA740"/>
<path d="M64.9581 7.10039L57.941 6.63905L55.2983 0L52.6557 6.63905L45.6462 7.10039L51.0224 11.6653L49.2582 18.59L55.2983 14.7721L61.3384 18.59L59.5743 11.6653L64.9581 7.10039Z" fill="#FFA740"/>
<path d="M110.604 7.10039L103.587 6.63905L100.944 0L98.3017 6.63905L91.2923 7.10039L96.6685 11.6653L94.9043 18.59L100.944 14.7721L106.985 18.59L105.22 11.6653L110.604 7.10039Z" fill="#FFA740"/>
</svg>
