<svg width="10" height="9" viewBox="0 0 10 9" fill="none" xmlns="http://www.w3.org/2000/svg">
<path d="M5.10036 9C4.9223 9.00008 4.74822 8.94734 4.60014 8.84845C4.45206 8.74957 4.33665 8.60898 4.26849 8.44447C4.20034 8.27997 4.18252 8.09895 4.21728 7.92431C4.25204 7.74968 4.33782 7.58928 4.46377 7.46341L7.21534 4.71244C7.24328 4.68457 7.26545 4.65146 7.28057 4.61502C7.2957 4.57857 7.30348 4.5395 7.30348 4.50004C7.30348 4.46058 7.2957 4.4215 7.28057 4.38506C7.26545 4.34861 7.24328 4.31551 7.21534 4.28764L4.46617 1.53666C4.29733 1.36791 4.20245 1.13899 4.20239 0.90028C4.20234 0.661567 4.29711 0.432609 4.46587 0.263774C4.63462 0.0949384 4.86354 5.62855e-05 5.10225 2.50339e-08C5.34096 -5.62354e-05 5.56992 0.0947181 5.73876 0.263474L8.49033 3.01505C8.88347 3.40927 9.10424 3.94329 9.10424 4.50004C9.10424 5.05678 8.88347 5.59081 8.49033 5.98502L5.73876 8.7366C5.65493 8.82037 5.55538 8.88677 5.44583 8.93197C5.33628 8.97717 5.21888 9.00029 5.10036 9Z" fill="#FFCD40"/>
<path d="M0.9004 9C0.72234 9.00008 0.548256 8.94734 0.400178 8.84845C0.2521 8.74957 0.136683 8.60898 0.0685309 8.44447C0.000379006 8.27997 -0.0174443 8.09895 0.0173159 7.92431C0.0520761 7.74968 0.137858 7.58928 0.263806 7.46341L3.22958 4.50004L0.266206 1.53666C0.0973708 1.36791 0.00248838 1.13899 0.00243212 0.90028C0.00237586 0.661567 0.0971502 0.432609 0.265906 0.263774C0.434662 0.0949384 0.663575 5.62855e-05 0.902288 2.50339e-08C1.141 -5.62354e-05 1.36996 0.0947181 1.53879 0.263474L5.13876 3.86344C5.2224 3.94702 5.28874 4.04626 5.33401 4.15549C5.37927 4.26472 5.40257 4.3818 5.40257 4.50004C5.40257 4.61827 5.37927 4.73535 5.33401 4.84458C5.28874 4.95381 5.2224 5.05305 5.13876 5.13663L1.53879 8.7366C1.45497 8.82037 1.35542 8.88677 1.24587 8.93197C1.13631 8.97717 1.01891 9.00029 0.9004 9Z" fill="#FFCD40"/>
</svg>
